<mxfile host="app.diagrams.net" modified="2023-10-17T20:58:23.395Z" agent="Mozilla/5.0 (Macintosh; Intel Mac OS X 10_15_7) AppleWebKit/605.1.15 (KHTML, like Gecko) Version/16.5 Safari/605.1.15" etag="KFcdc1U4SBFGW4m_8r5W" version="22.0.4" type="device">
  <diagram id="C5RBs43oDa-KdzZeNtuy" name="Page-1">
    <mxGraphModel dx="1158" dy="785" grid="1" gridSize="10" guides="1" tooltips="1" connect="1" arrows="1" fold="1" page="1" pageScale="1" pageWidth="827" pageHeight="1169" math="0" shadow="0">
      <root>
        <mxCell id="WIyWlLk6GJQsqaUBKTNV-0" />
        <mxCell id="WIyWlLk6GJQsqaUBKTNV-1" parent="WIyWlLk6GJQsqaUBKTNV-0" />
        <mxCell id="WIyWlLk6GJQsqaUBKTNV-2" value="" style="rounded=0;html=1;jettySize=auto;orthogonalLoop=1;fontSize=16;endArrow=block;endFill=0;endSize=8;strokeWidth=1;shadow=0;labelBackgroundColor=none;edgeStyle=orthogonalEdgeStyle;exitX=1;exitY=0.5;exitDx=0;exitDy=0;entryX=0;entryY=0.5;entryDx=0;entryDy=0;fontStyle=1" parent="WIyWlLk6GJQsqaUBKTNV-1" source="LgZh5UOVkd5tFv0mdFSw-24" target="LgZh5UOVkd5tFv0mdFSw-1" edge="1">
          <mxGeometry relative="1" as="geometry">
            <mxPoint x="150" y="90" as="sourcePoint" />
            <mxPoint x="230" y="162" as="targetPoint" />
            <Array as="points" />
          </mxGeometry>
        </mxCell>
        <mxCell id="LgZh5UOVkd5tFv0mdFSw-2" value="" style="edgeStyle=orthogonalEdgeStyle;rounded=0;orthogonalLoop=1;jettySize=auto;html=1;fontSize=16;fontStyle=1" parent="WIyWlLk6GJQsqaUBKTNV-1" source="gK3jX9xH8F0dARAaS51u-2" target="gK3jX9xH8F0dARAaS51u-3" edge="1">
          <mxGeometry relative="1" as="geometry" />
        </mxCell>
        <mxCell id="gK3jX9xH8F0dARAaS51u-2" value="SimpleImputer()" style="rounded=1;whiteSpace=wrap;html=1;fontSize=16;glass=0;strokeWidth=1;shadow=0;fontStyle=1" parent="WIyWlLk6GJQsqaUBKTNV-1" vertex="1">
          <mxGeometry x="230" y="140" width="130" height="40" as="geometry" />
        </mxCell>
        <mxCell id="gK3jX9xH8F0dARAaS51u-3" value="StandardScaler()" style="rounded=1;whiteSpace=wrap;html=1;fontSize=16;glass=0;strokeWidth=1;shadow=0;fontStyle=1" parent="WIyWlLk6GJQsqaUBKTNV-1" vertex="1">
          <mxGeometry x="230" y="210" width="130" height="40" as="geometry" />
        </mxCell>
        <mxCell id="gK3jX9xH8F0dARAaS51u-4" value="" style="endArrow=classic;html=1;rounded=0;exitX=0.5;exitY=1;exitDx=0;exitDy=0;entryX=0.5;entryY=0;entryDx=0;entryDy=0;fontSize=16;fontStyle=1" parent="WIyWlLk6GJQsqaUBKTNV-1" source="gK3jX9xH8F0dARAaS51u-2" target="gK3jX9xH8F0dARAaS51u-3" edge="1">
          <mxGeometry width="50" height="50" relative="1" as="geometry">
            <mxPoint x="320" y="340" as="sourcePoint" />
            <mxPoint x="370" y="290" as="targetPoint" />
          </mxGeometry>
        </mxCell>
        <mxCell id="gK3jX9xH8F0dARAaS51u-5" value="" style="swimlane;startSize=0;dashed=1;strokeWidth=3;fontSize=16;fontStyle=1" parent="WIyWlLk6GJQsqaUBKTNV-1" vertex="1">
          <mxGeometry x="200" y="60" width="190" height="210" as="geometry" />
        </mxCell>
        <mxCell id="LgZh5UOVkd5tFv0mdFSw-1" value="format()" style="rounded=1;whiteSpace=wrap;html=1;fontSize=16;glass=0;strokeWidth=1;shadow=0;fontStyle=1" parent="gK3jX9xH8F0dARAaS51u-5" vertex="1">
          <mxGeometry x="30" y="10" width="130" height="40" as="geometry" />
        </mxCell>
        <mxCell id="gK3jX9xH8F0dARAaS51u-6" value="Data pre-process" style="text;html=1;strokeColor=none;fillColor=none;align=center;verticalAlign=middle;whiteSpace=wrap;rounded=0;fontSize=16;fontStyle=1" parent="WIyWlLk6GJQsqaUBKTNV-1" vertex="1">
          <mxGeometry x="280" y="20" width="120" height="30" as="geometry" />
        </mxCell>
        <mxCell id="gK3jX9xH8F0dARAaS51u-17" value="" style="swimlane;startSize=0;dashed=1;strokeWidth=3;fontSize=16;fontStyle=1" parent="WIyWlLk6GJQsqaUBKTNV-1" vertex="1">
          <mxGeometry x="20" y="340" width="840" height="360" as="geometry" />
        </mxCell>
        <mxCell id="LgZh5UOVkd5tFv0mdFSw-23" value="" style="rounded=1;whiteSpace=wrap;html=1;fontSize=16;fontStyle=1" parent="gK3jX9xH8F0dARAaS51u-17" vertex="1">
          <mxGeometry x="20" y="50" width="320" height="290" as="geometry" />
        </mxCell>
        <mxCell id="LgZh5UOVkd5tFv0mdFSw-29" value="Prompt generation" style="text;html=1;strokeColor=none;fillColor=none;align=center;verticalAlign=middle;whiteSpace=wrap;rounded=0;fontSize=16;fontStyle=1" parent="gK3jX9xH8F0dARAaS51u-17" vertex="1">
          <mxGeometry x="10" y="10" width="127" height="40" as="geometry" />
        </mxCell>
        <mxCell id="gK3jX9xH8F0dARAaS51u-13" value="Context generate" style="rounded=1;whiteSpace=wrap;html=1;fontSize=16;glass=0;strokeWidth=1;shadow=0;fontStyle=1" parent="gK3jX9xH8F0dARAaS51u-17" vertex="1">
          <mxGeometry x="40" y="95" width="120" height="40" as="geometry" />
        </mxCell>
        <mxCell id="gK3jX9xH8F0dARAaS51u-14" value="Query generate" style="rounded=1;whiteSpace=wrap;html=1;fontSize=16;glass=0;strokeWidth=1;shadow=0;fontStyle=1" parent="gK3jX9xH8F0dARAaS51u-17" vertex="1">
          <mxGeometry x="40" y="242.5" width="120" height="40" as="geometry" />
        </mxCell>
        <mxCell id="gK3jX9xH8F0dARAaS51u-20" value="Background" style="whiteSpace=wrap;html=1;align=center;strokeWidth=2;fontSize=16;fontStyle=1" parent="gK3jX9xH8F0dARAaS51u-17" vertex="1">
          <mxGeometry x="180" y="75" width="140" height="45" as="geometry" />
        </mxCell>
        <mxCell id="gK3jX9xH8F0dARAaS51u-22" value="Class description based on features" style="whiteSpace=wrap;html=1;align=center;strokeWidth=2;fontSize=16;fontStyle=1" parent="gK3jX9xH8F0dARAaS51u-17" vertex="1">
          <mxGeometry x="180" y="130" width="140" height="50" as="geometry" />
        </mxCell>
        <mxCell id="gK3jX9xH8F0dARAaS51u-32" value="Description of samples" style="whiteSpace=wrap;html=1;align=center;strokeWidth=2;fontSize=16;fontStyle=1" parent="gK3jX9xH8F0dARAaS51u-17" vertex="1">
          <mxGeometry x="180" y="210" width="140" height="50" as="geometry" />
        </mxCell>
        <mxCell id="LgZh5UOVkd5tFv0mdFSw-31" value="" style="shape=curlyBracket;whiteSpace=wrap;html=1;rounded=1;labelPosition=left;verticalLabelPosition=middle;align=right;verticalAlign=middle;fontSize=16;fontStyle=1" parent="gK3jX9xH8F0dARAaS51u-17" vertex="1">
          <mxGeometry x="160" y="90" width="20" height="60" as="geometry" />
        </mxCell>
        <mxCell id="LgZh5UOVkd5tFv0mdFSw-33" value="" style="strokeWidth=2;html=1;shape=mxgraph.flowchart.annotation_2;align=left;labelPosition=right;pointerEvents=1;fontSize=16;fontStyle=1" parent="gK3jX9xH8F0dARAaS51u-17" vertex="1">
          <mxGeometry x="160" y="232" width="20" height="58" as="geometry" />
        </mxCell>
        <mxCell id="LgZh5UOVkd5tFv0mdFSw-39" value="" style="endArrow=classic;html=1;rounded=0;exitX=0.5;exitY=0;exitDx=0;exitDy=0;entryX=0;entryY=0.5;entryDx=0;entryDy=0;fontSize=16;fontStyle=1" parent="gK3jX9xH8F0dARAaS51u-17" source="LgZh5UOVkd5tFv0mdFSw-40" target="gK3jX9xH8F0dARAaS51u-55" edge="1">
          <mxGeometry width="50" height="50" relative="1" as="geometry">
            <mxPoint x="407" y="164" as="sourcePoint" />
            <mxPoint x="490" y="164" as="targetPoint" />
            <Array as="points">
              <mxPoint x="425" y="125" />
            </Array>
          </mxGeometry>
        </mxCell>
        <mxCell id="M9BQgRVC1g5KuV-49ErW-7" style="edgeStyle=orthogonalEdgeStyle;rounded=0;orthogonalLoop=1;jettySize=auto;html=1;exitX=0.5;exitY=1;exitDx=0;exitDy=0;entryX=0.5;entryY=0;entryDx=0;entryDy=0;" edge="1" parent="gK3jX9xH8F0dARAaS51u-17" source="gK3jX9xH8F0dARAaS51u-55" target="M9BQgRVC1g5KuV-49ErW-5">
          <mxGeometry relative="1" as="geometry" />
        </mxCell>
        <mxCell id="gK3jX9xH8F0dARAaS51u-55" value="Accuracy check" style="rounded=1;whiteSpace=wrap;html=1;fontSize=16;glass=0;strokeWidth=1;shadow=0;fontStyle=1" parent="gK3jX9xH8F0dARAaS51u-17" vertex="1">
          <mxGeometry x="520" y="102.5" width="120" height="45" as="geometry" />
        </mxCell>
        <mxCell id="LgZh5UOVkd5tFv0mdFSw-45" value="Better selection &amp;amp; prompt" style="ellipse;whiteSpace=wrap;html=1;fontSize=16;fontStyle=1" parent="gK3jX9xH8F0dARAaS51u-17" vertex="1">
          <mxGeometry x="694" y="90" width="130" height="70" as="geometry" />
        </mxCell>
        <mxCell id="LgZh5UOVkd5tFv0mdFSw-46" value="" style="endArrow=classic;html=1;rounded=0;exitX=1;exitY=0.5;exitDx=0;exitDy=0;entryX=0;entryY=0.5;entryDx=0;entryDy=0;fontSize=16;fontStyle=1" parent="gK3jX9xH8F0dARAaS51u-17" source="gK3jX9xH8F0dARAaS51u-55" target="LgZh5UOVkd5tFv0mdFSw-45" edge="1">
          <mxGeometry width="50" height="50" relative="1" as="geometry">
            <mxPoint x="230" y="40" as="sourcePoint" />
            <mxPoint x="280" y="-10" as="targetPoint" />
          </mxGeometry>
        </mxCell>
        <mxCell id="LgZh5UOVkd5tFv0mdFSw-50" value="Explanation" style="ellipse;whiteSpace=wrap;html=1;fontSize=16;fontStyle=1" parent="gK3jX9xH8F0dARAaS51u-17" vertex="1">
          <mxGeometry x="532" y="242.5" width="96" height="50" as="geometry" />
        </mxCell>
        <mxCell id="wU94CwXAXJLVjP6M7Yj--1" value="Classification task" style="whiteSpace=wrap;html=1;align=center;strokeWidth=2;fontSize=16;fontStyle=1" parent="gK3jX9xH8F0dARAaS51u-17" vertex="1">
          <mxGeometry x="180" y="270" width="140" height="50" as="geometry" />
        </mxCell>
        <mxCell id="M9BQgRVC1g5KuV-49ErW-2" value="" style="endArrow=classic;html=1;rounded=0;exitX=1;exitY=0.5;exitDx=0;exitDy=0;entryX=0;entryY=0.5;entryDx=0;entryDy=0;fontSize=16;fontStyle=1" edge="1" parent="gK3jX9xH8F0dARAaS51u-17" source="LgZh5UOVkd5tFv0mdFSw-23" target="LgZh5UOVkd5tFv0mdFSw-40">
          <mxGeometry width="50" height="50" relative="1" as="geometry">
            <mxPoint x="340" y="575" as="sourcePoint" />
            <mxPoint x="540" y="475" as="targetPoint" />
            <Array as="points" />
          </mxGeometry>
        </mxCell>
        <mxCell id="LgZh5UOVkd5tFv0mdFSw-40" value="GPT classification" style="ellipse;whiteSpace=wrap;html=1;fontSize=16;fontStyle=1" parent="gK3jX9xH8F0dARAaS51u-17" vertex="1">
          <mxGeometry x="370" y="160" width="110" height="70" as="geometry" />
        </mxCell>
        <mxCell id="M9BQgRVC1g5KuV-49ErW-8" style="edgeStyle=orthogonalEdgeStyle;rounded=0;orthogonalLoop=1;jettySize=auto;html=1;exitX=0.5;exitY=1;exitDx=0;exitDy=0;entryX=0.5;entryY=0;entryDx=0;entryDy=0;" edge="1" parent="gK3jX9xH8F0dARAaS51u-17" source="M9BQgRVC1g5KuV-49ErW-5" target="LgZh5UOVkd5tFv0mdFSw-50">
          <mxGeometry relative="1" as="geometry" />
        </mxCell>
        <mxCell id="M9BQgRVC1g5KuV-49ErW-5" value="&lt;b&gt;Single&lt;/b&gt;" style="ellipse;whiteSpace=wrap;html=1;" vertex="1" parent="gK3jX9xH8F0dARAaS51u-17">
          <mxGeometry x="545" y="180" width="70" height="30" as="geometry" />
        </mxCell>
        <mxCell id="M9BQgRVC1g5KuV-49ErW-4" value="&lt;b&gt;Multi&lt;/b&gt;" style="ellipse;whiteSpace=wrap;html=1;" vertex="1" parent="gK3jX9xH8F0dARAaS51u-17">
          <mxGeometry x="390" y="110" width="70" height="30" as="geometry" />
        </mxCell>
        <mxCell id="M9BQgRVC1g5KuV-49ErW-15" value="High" style="text;html=1;strokeColor=none;fillColor=none;align=center;verticalAlign=middle;whiteSpace=wrap;rounded=0;" vertex="1" parent="gK3jX9xH8F0dARAaS51u-17">
          <mxGeometry x="568" y="147.5" width="60" height="30" as="geometry" />
        </mxCell>
        <mxCell id="M9BQgRVC1g5KuV-49ErW-14" value="Low" style="text;html=1;strokeColor=none;fillColor=none;align=center;verticalAlign=middle;whiteSpace=wrap;rounded=0;" vertex="1" parent="gK3jX9xH8F0dARAaS51u-17">
          <mxGeometry x="640" y="90" width="60" height="30" as="geometry" />
        </mxCell>
        <mxCell id="LgZh5UOVkd5tFv0mdFSw-3" value="" style="edgeStyle=orthogonalEdgeStyle;rounded=0;orthogonalLoop=1;jettySize=auto;html=1;fontSize=16;fontStyle=1" parent="WIyWlLk6GJQsqaUBKTNV-1" edge="1">
          <mxGeometry relative="1" as="geometry">
            <mxPoint x="295" y="112" as="sourcePoint" />
            <mxPoint x="295" y="142" as="targetPoint" />
          </mxGeometry>
        </mxCell>
        <mxCell id="LgZh5UOVkd5tFv0mdFSw-5" value="" style="endArrow=classic;html=1;rounded=0;exitX=1.011;exitY=0.143;exitDx=0;exitDy=0;fontSize=16;fontStyle=1;entryX=0;entryY=0.5;entryDx=0;entryDy=0;exitPerimeter=0;" parent="WIyWlLk6GJQsqaUBKTNV-1" source="gK3jX9xH8F0dARAaS51u-5" target="LgZh5UOVkd5tFv0mdFSw-10" edge="1">
          <mxGeometry width="50" height="50" relative="1" as="geometry">
            <mxPoint x="700" y="410" as="sourcePoint" />
            <mxPoint x="90" y="450" as="targetPoint" />
            <Array as="points" />
          </mxGeometry>
        </mxCell>
        <mxCell id="LgZh5UOVkd5tFv0mdFSw-24" value="original dataset" style="ellipse;whiteSpace=wrap;html=1;fontSize=16;fontStyle=1" parent="WIyWlLk6GJQsqaUBKTNV-1" vertex="1">
          <mxGeometry x="35" y="65" width="110" height="50" as="geometry" />
        </mxCell>
        <mxCell id="M9BQgRVC1g5KuV-49ErW-9" style="edgeStyle=orthogonalEdgeStyle;rounded=0;orthogonalLoop=1;jettySize=auto;html=1;exitX=0.5;exitY=1;exitDx=0;exitDy=0;entryX=0.5;entryY=0;entryDx=0;entryDy=0;" edge="1" parent="WIyWlLk6GJQsqaUBKTNV-1" source="LgZh5UOVkd5tFv0mdFSw-26" target="LgZh5UOVkd5tFv0mdFSw-23">
          <mxGeometry relative="1" as="geometry">
            <Array as="points">
              <mxPoint x="514" y="310" />
              <mxPoint x="200" y="310" />
            </Array>
          </mxGeometry>
        </mxCell>
        <mxCell id="LgZh5UOVkd5tFv0mdFSw-26" value="train dataset(X,y)" style="ellipse;whiteSpace=wrap;html=1;fontSize=16;fontStyle=1" parent="WIyWlLk6GJQsqaUBKTNV-1" vertex="1">
          <mxGeometry x="430" y="220" width="167.5" height="50" as="geometry" />
        </mxCell>
        <mxCell id="LgZh5UOVkd5tFv0mdFSw-41" value="" style="endArrow=classic;html=1;rounded=0;exitX=0.75;exitY=1;exitDx=0;exitDy=0;fontSize=16;fontStyle=1;" parent="WIyWlLk6GJQsqaUBKTNV-1" source="LgZh5UOVkd5tFv0mdFSw-10" edge="1">
          <mxGeometry width="50" height="50" relative="1" as="geometry">
            <mxPoint x="650" y="370" as="sourcePoint" />
            <mxPoint x="700" y="220" as="targetPoint" />
            <Array as="points">
              <mxPoint x="633" y="160" />
              <mxPoint x="700" y="160" />
            </Array>
          </mxGeometry>
        </mxCell>
        <mxCell id="M9BQgRVC1g5KuV-49ErW-10" style="edgeStyle=orthogonalEdgeStyle;rounded=0;orthogonalLoop=1;jettySize=auto;html=1;exitX=0.5;exitY=1;exitDx=0;exitDy=0;entryX=0.5;entryY=0;entryDx=0;entryDy=0;" edge="1" parent="WIyWlLk6GJQsqaUBKTNV-1" source="LgZh5UOVkd5tFv0mdFSw-42" target="LgZh5UOVkd5tFv0mdFSw-23">
          <mxGeometry relative="1" as="geometry">
            <Array as="points">
              <mxPoint x="705" y="310" />
              <mxPoint x="200" y="310" />
            </Array>
          </mxGeometry>
        </mxCell>
        <mxCell id="M9BQgRVC1g5KuV-49ErW-11" style="edgeStyle=orthogonalEdgeStyle;rounded=0;orthogonalLoop=1;jettySize=auto;html=1;exitX=0.5;exitY=1;exitDx=0;exitDy=0;entryX=0.5;entryY=0;entryDx=0;entryDy=0;" edge="1" parent="WIyWlLk6GJQsqaUBKTNV-1" source="LgZh5UOVkd5tFv0mdFSw-42" target="gK3jX9xH8F0dARAaS51u-55">
          <mxGeometry relative="1" as="geometry" />
        </mxCell>
        <mxCell id="LgZh5UOVkd5tFv0mdFSw-42" value="test_dataset(X,y)" style="ellipse;whiteSpace=wrap;html=1;fontSize=16;fontStyle=1" parent="WIyWlLk6GJQsqaUBKTNV-1" vertex="1">
          <mxGeometry x="620" y="220" width="170" height="50" as="geometry" />
        </mxCell>
        <mxCell id="LgZh5UOVkd5tFv0mdFSw-10" value="" style="rounded=1;whiteSpace=wrap;html=1;fontSize=16;fontStyle=1;movable=0;resizable=0;rotatable=0;deletable=0;editable=0;locked=1;connectable=0;" parent="WIyWlLk6GJQsqaUBKTNV-1" vertex="1">
          <mxGeometry x="550" y="60" width="110" height="60" as="geometry" />
        </mxCell>
        <mxCell id="LgZh5UOVkd5tFv0mdFSw-28" value="" style="endArrow=classic;html=1;rounded=0;exitX=0.25;exitY=1;exitDx=0;exitDy=0;fontSize=16;fontStyle=1;entryX=0;entryY=0.5;entryDx=0;entryDy=0;" parent="WIyWlLk6GJQsqaUBKTNV-1" source="LgZh5UOVkd5tFv0mdFSw-10" target="LgZh5UOVkd5tFv0mdFSw-26" edge="1">
          <mxGeometry width="50" height="50" relative="1" as="geometry">
            <mxPoint x="360" y="410" as="sourcePoint" />
            <mxPoint x="890" y="165" as="targetPoint" />
            <Array as="points">
              <mxPoint x="578" y="160" />
              <mxPoint x="514" y="160" />
            </Array>
          </mxGeometry>
        </mxCell>
        <mxCell id="LgZh5UOVkd5tFv0mdFSw-11" value="Feature selection" style="text;html=1;strokeColor=none;fillColor=none;align=center;verticalAlign=middle;whiteSpace=wrap;rounded=0;fontSize=16;fontStyle=1;movable=1;resizable=1;rotatable=1;deletable=1;editable=1;locked=0;connectable=1;" parent="WIyWlLk6GJQsqaUBKTNV-1" vertex="1">
          <mxGeometry x="545" y="75" width="120" height="30" as="geometry" />
        </mxCell>
        <mxCell id="gK3jX9xH8F0dARAaS51u-34" value="Prompt execution" style="text;html=1;strokeColor=none;fillColor=none;align=center;verticalAlign=middle;whiteSpace=wrap;rounded=0;fontSize=16;fontStyle=1" parent="WIyWlLk6GJQsqaUBKTNV-1" vertex="1">
          <mxGeometry x="740" y="300" width="130" height="40" as="geometry" />
        </mxCell>
      </root>
    </mxGraphModel>
  </diagram>
</mxfile>
